<?xml version="1.0" standalone="no"?>
<!DOCTYPE svg PUBLIC "-//W3C//DTD SVG 20010904//EN"
 "http://www.w3.org/TR/2001/REC-SVG-20010904/DTD/svg10.dtd">
<svg version="1.0" xmlns="http://www.w3.org/2000/svg"
 width="578.000000pt" height="578.000000pt" viewBox="0 0 578.000000 578.000000"
 preserveAspectRatio="xMidYMid meet">
<metadata>
Created by potrace 1.11, written by Peter Selinger 2001-2013
</metadata>
<g transform="translate(0.000000,578.000000) scale(0.100000,-0.100000)"
fill="#000000" stroke="none">
<path d="M956 4474 c-325 -81 -561 -496 -722 -1269 -13 -63 -34 -176 -40 -215
-8 -56 -11 -76 -24 -148 -5 -31 -12 -73 -14 -92 -39 -281 -46 -347 -61 -515
-3 -38 -8 -83 -10 -100 -2 -16 -7 -70 -10 -120 -3 -49 -8 -106 -10 -125 -7
-60 -19 -321 -20 -416 0 -80 3 -95 25 -126 35 -52 75 -72 141 -73 97 0 158 65
164 174 1 31 6 119 10 196 4 77 8 156 10 175 2 19 6 79 10 132 3 54 8 112 10
130 2 18 7 64 10 103 4 38 8 81 10 95 2 14 6 54 10 90 6 65 11 104 20 170 2
19 7 57 11 84 3 27 7 56 9 65 1 9 6 41 10 71 4 30 9 64 11 75 2 11 9 48 14 82
45 277 134 626 207 808 134 338 273 477 413 414 165 -74 329 -409 451 -924 17
-71 33 -141 35 -155 3 -14 11 -56 19 -95 8 -38 17 -92 21 -120 3 -27 8 -53 10
-56 2 -3 10 -55 19 -115 9 -60 18 -120 20 -134 6 -38 34 -257 40 -320 3 -30 8
-66 10 -80 2 -14 6 -59 10 -100 3 -41 8 -97 10 -125 16 -178 25 -308 30 -425
3 -71 9 -100 27 -133 53 -97 198 -116 277 -35 42 43 49 71 56 238 3 80 7 165
9 190 2 25 7 90 11 145 3 55 8 118 10 140 2 22 7 69 10 105 5 63 8 96 20 211
5 57 14 127 20 169 2 14 11 78 20 142 9 65 17 125 19 135 2 10 6 39 10 64 14
93 56 306 86 434 12 50 23 97 25 105 2 8 17 60 34 115 100 335 224 558 344
621 16 8 50 15 76 16 175 1 359 -317 496 -860 20 -78 38 -150 40 -159 34 -170
73 -386 81 -443 3 -25 7 -52 9 -60 3 -8 15 -105 29 -215 30 -239 36 -297 51
-460 3 -33 8 -85 11 -115 6 -62 11 -148 19 -300 7 -129 20 -182 54 -216 88
-89 244 -61 289 51 6 17 14 82 17 145 10 212 20 366 40 595 10 111 14 157 20
203 3 23 7 61 10 85 90 791 242 1361 432 1619 65 90 149 141 213 131 217 -33
433 -522 571 -1293 6 -36 13 -74 14 -85 2 -11 10 -63 18 -115 15 -88 20 -125
32 -222 3 -21 7 -55 10 -75 11 -88 15 -124 25 -223 6 -58 12 -118 14 -135 2
-16 7 -73 11 -125 3 -52 8 -106 10 -120 2 -14 7 -81 11 -150 12 -237 15 -251
65 -294 38 -32 75 -46 122 -46 35 0 102 40 127 77 21 31 25 48 25 112 0 67
-11 258 -19 361 -2 20 -7 76 -10 125 -4 50 -9 101 -11 115 -2 14 -6 54 -9 90
-4 36 -8 76 -10 90 -3 14 -7 55 -11 92 -3 37 -8 77 -10 90 -2 13 -6 43 -9 68
-3 25 -8 55 -10 67 -3 12 -7 48 -11 80 -3 32 -8 65 -10 73 -2 8 -6 33 -10 55
-9 60 -20 128 -41 240 -39 215 -111 497 -174 687 -151 451 -353 711 -607 781
-66 18 -201 15 -268 -6 -256 -82 -456 -376 -604 -892 -38 -133 -103 -415 -115
-500 -16 -105 -21 -102 -45 26 -12 68 -27 135 -32 149 -4 14 -11 39 -14 55 -2
17 -11 55 -19 85 -8 30 -22 81 -30 113 -20 77 -91 286 -123 362 -175 420 -408
632 -682 621 -265 -10 -477 -216 -633 -616 -16 -41 -33 -84 -38 -95 -22 -49
-101 -337 -136 -495 -4 -19 -8 -37 -9 -40 -1 -3 -12 -63 -25 -135 l-24 -130
-13 55 c-7 30 -15 73 -19 95 -10 65 -82 351 -121 475 -70 228 -162 434 -256
575 -52 77 -179 204 -239 239 -116 67 -263 90 -382 60z"/>
</g>
</svg>
