<?xml version="1.0" encoding="utf-8"?>
<!-- Generator: Adobe Illustrator 16.0.0, SVG Export Plug-In . SVG Version: 6.00 Build 0)  -->
<!DOCTYPE svg PUBLIC "-//W3C//DTD SVG 1.1//EN" "http://www.w3.org/Graphics/SVG/1.1/DTD/svg11.dtd">
<svg version="1.1" id="Layer_1" xmlns="http://www.w3.org/2000/svg" xmlns:xlink="http://www.w3.org/1999/xlink" x="0px" y="0px"
	 width="402.029px" height="261.484px" viewBox="0 0 402.029 261.484" enable-background="new 0 0 402.029 261.484"
	 xml:space="preserve">
<g>
	<path fill="#282828" d="M35.492,187.28c1.612,0,3.443,0.074,5.483,0.199c2.046,0.128,4.09,0.308,6.124,0.528
		c2.042,0.235,4.055,0.483,6.03,0.782c1.974,0.289,3.74,0.63,5.298,1.018c1.422,0.521,2.262,1.43,2.519,2.722l3.79,18.171
		c0.199,0.781-0.034,1.412-0.681,1.902c-0.646,0.478-1.328,0.49-2.039,0.036c-2.658-1.42-5.623-2.619-8.888-3.592
		c-3.277-0.968-6.564-1.619-9.866-1.941c-3.687-0.257-6.706-0.161-9.039,0.294c-2.332,0.451-3.561,1.39-3.688,2.813
		c0,0.643,0.535,1.229,1.604,1.751c1.068,0.521,2.542,0.938,4.417,1.258c3.177,0.523,6.444,1.232,9.813,2.146
		c3.367,0.908,6.511,2.073,9.422,3.496c1.755,0.846,3.372,1.816,4.866,2.915c1.488,1.1,2.78,2.387,3.886,3.842
		c1.099,1.455,1.973,3.096,2.625,4.9c0.645,1.816,0.967,3.823,0.967,6.022c-0.061,3.695-0.86,7.146-2.378,10.351
		c-1.527,3.208-3.837,5.812-6.945,7.823c-3.305,2.272-7.322,3.757-12.056,4.47c-4.731,0.711-9.973,1.104-15.738,1.165
		c-3.561,0-7.19-0.229-10.886-0.684c-3.686-0.454-7.181-1.228-10.487-2.325c-2.012-0.65-3.241-1.881-3.697-3.695L1.675,235.77
		c-0.13-0.456-0.109-0.827,0.052-1.12c0.161-0.292,0.421-0.518,0.775-0.682c0.352-0.16,0.728-0.24,1.114-0.24
		c0.389,0,0.744,0.099,1.068,0.289c1.875,1.173,3.999,2.189,6.365,3.062c2.362,0.874,4.763,1.585,7.188,2.138
		c2.431,0.554,4.828,0.905,7.195,1.069c2.367,0.163,4.452,0.145,6.271-0.049c1.809-0.197,3.261-0.557,4.363-1.116
		c1.104-0.553,1.655-1.312,1.655-2.284c0-0.91-0.808-1.617-2.426-2.137c-1.617-0.519-3.791-1.009-6.514-1.463
		c-3.177-0.514-6.528-1.361-10.063-2.522c-3.525-1.17-6.748-2.723-9.659-4.663c-2.461-1.62-4.376-3.873-5.73-6.752
		c-1.365-2.887-2.112-6.208-2.236-9.967c0-4.27,0.987-7.815,2.962-10.637c1.974-2.817,4.57-5.083,7.771-6.8
		c3.209-1.719,6.862-2.917,10.981-3.6C26.921,187.622,31.151,187.28,35.492,187.28z"/>
	<path fill="#282828" d="M88.148,259.088c-0.513,0-0.982-0.197-1.402-0.586c-0.427-0.385-0.632-0.834-0.632-1.356v-66.656
		c0-0.583,0.206-1.068,0.632-1.456c0.42-0.393,0.89-0.586,1.402-0.586h24.106c0.578,0,1.05,0.193,1.406,0.586
		c0.354,0.388,0.533,0.873,0.533,1.456v22.732c0,1.298,0.646,1.95,1.95,1.95h5.432c1.17,0,1.752-0.652,1.752-1.95v-22.732
		c0-0.583,0.208-1.068,0.636-1.456c0.416-0.393,0.882-0.586,1.41-0.586h24.094c0.513,0,0.969,0.193,1.357,0.586
		c0.384,0.388,0.583,0.873,0.583,1.456v66.656c0,0.522-0.199,0.973-0.583,1.356c-0.389,0.389-0.845,0.586-1.357,0.586h-24.094
		c-0.528,0-0.994-0.197-1.41-0.586c-0.427-0.385-0.636-0.834-0.636-1.356v-17.299c0-1.293-0.582-1.938-1.752-1.938h-5.432
		c-1.304,0-1.95,0.646-1.95,1.938v17.299c0,0.522-0.18,0.973-0.533,1.356c-0.356,0.389-0.829,0.586-1.406,0.586H88.148z"/>
	<path fill="#282828" d="M331.551,202.591c-2.329-3.533-5.367-6.385-9.131-8.556c-3.76-2.175-8-3.758-12.731-4.761
		c-4.73-1-9.518-1.537-14.387-1.6c-2.386,0-4.653,0.03-6.786,0.097c-2.14,0.062-4.252,0.146-6.319,0.238
		c-2.071,0.097-4.168,0.214-6.27,0.347c-2.105,0.125-4.262,0.286-6.461,0.486c-0.523,0.06-0.989,0.271-1.411,0.625
		c-0.423,0.354-0.638,0.788-0.638,1.314v66.364c0,0.522,0.215,0.972,0.638,1.356c0.422,0.389,0.888,0.586,1.411,0.586h24.682
		c0.581,0,1.062-0.197,1.461-0.586c0.386-0.384,0.578-0.834,0.578-1.356v-12.242c0-0.385,0.163-0.583,0.486-0.583
		c4.275,0.327,8.695,0.036,13.266-0.874c4.563-0.907,8.722-2.529,12.482-4.857c3.763-2.334,6.833-5.39,9.23-9.183
		c2.396-3.787,3.561-8.406,3.497-13.852C335.085,210.442,333.881,206.116,331.551,202.591z M305.718,221.556
		c-1.578,1.388-4.204,2.005-7.898,1.855c-0.616,0-1.204-0.166-1.786-0.468c-0.571-0.312-0.858-0.842-0.858-1.623h-0.001v-10.135
		c0-0.615,0.317-1.135,0.987-1.553c0.642-0.428,1.271-0.676,1.887-0.746c2.695-0.161,5.041,0.339,7.034,1.493
		c1.993,1.156,2.997,3.035,2.997,5.651C308.079,218.33,307.296,220.174,305.718,221.556z"/>
	<path fill="#282828" d="M170.202,224.081c0-5.503,0.917-10.785,2.728-15.867c1.805-5.078,4.645-9.347,8.512-12.818
		c3.383-3.044,7.446-5.334,12.189-6.856c4.714-1.529,9.554-2.285,14.519-2.285c4.889,0,9.692,0.756,14.422,2.285
		c4.729,1.522,8.79,3.812,12.185,6.856c3.862,3.473,6.689,7.74,8.506,12.818c1.804,5.082,2.722,10.364,2.722,15.867
		c0,5.587-0.918,10.933-2.722,16.055c-1.815,5.118-4.644,9.42-8.506,12.888c-3.395,3.047-7.456,5.308-12.185,6.781
		c-4.729,1.483-9.533,2.223-14.422,2.223c-4.965,0-9.805-0.738-14.519-2.223c-4.743-1.475-8.807-3.734-12.189-6.781
		c-3.869-3.468-6.707-7.77-8.512-12.888C171.119,235.012,170.202,229.667,170.202,224.081z M197.274,224.081
		c-0.317,3.136,0.599,5.751,2.719,7.866c2.137,2.119,4.847,3.174,8.156,3.174c3.311,0,6.013-1.055,8.104-3.174
		c2.085-2.115,3.048-4.73,2.896-7.866c0.078-1.525-0.138-2.94-0.66-4.262c-0.513-1.303-1.251-2.45-2.236-3.416
		c-0.993-0.972-2.171-1.737-3.539-2.285c-1.396-0.548-2.906-0.822-4.563-0.822c-1.654,0-3.17,0.274-4.557,0.822
		c-1.373,0.548-2.553,1.313-3.529,2.285c-0.993,0.966-1.739,2.113-2.244,3.416C197.294,221.139,197.121,222.554,197.274,224.081z"/>
	<path fill="#282828" d="M347.346,27.295c0-3.97,0.66-7.787,1.969-11.457c1.296-3.658,3.35-6.74,6.146-9.248
		c2.435-2.196,5.363-3.844,8.783-4.939c3.413-1.103,6.901-1.65,10.49-1.65c3.527,0,6.993,0.548,10.408,1.651
		c3.407,1.096,6.339,2.743,8.783,4.939c2.788,2.507,4.829,5.589,6.148,9.248c1.303,3.669,1.954,7.486,1.954,11.457
		c0,4.03-0.651,7.892-1.954,11.586c-1.319,3.695-3.36,6.794-6.148,9.299c-2.444,2.198-5.376,3.833-8.783,4.896
		c-3.415,1.073-6.881,1.604-10.408,1.604c-3.589,0-7.077-0.531-10.491-1.604c-3.421-1.063-6.35-2.698-8.783-4.896
		c-2.797-2.505-4.851-5.604-6.146-9.299C348.006,35.186,347.346,31.325,347.346,27.295z M366.884,27.295
		c-0.225,2.261,0.431,4.15,1.964,5.679c1.539,1.527,3.5,2.289,5.888,2.289c2.385,0,4.33-0.762,5.839-2.289
		c1.504-1.528,2.212-3.418,2.088-5.679c0.062-1.101-0.095-2.12-0.456-3.069c-0.386-0.942-0.922-1.771-1.632-2.472
		c-0.71-0.704-1.556-1.251-2.554-1.648c-1.001-0.398-2.094-0.598-3.285-0.598c-1.2,0-2.294,0.199-3.292,0.598
		c-0.989,0.397-1.843,0.944-2.555,1.648c-0.712,0.699-1.249,1.528-1.616,2.472C366.893,25.175,366.777,26.194,366.884,27.295z"/>
	<g>
		<path fill="#282828" d="M64.481,15.986c0.649,0.688,0.972,1.597,0.972,2.727v129.125c0,1.14-0.321,2.075-0.972,2.83
			c-0.638,0.75-1.396,1.123-2.251,1.123H20.038c-0.963,0-1.77-0.373-2.411-1.123c-0.646-0.755-0.967-1.69-0.967-2.83V59.934
			c0-1.134-0.324-2.042-0.967-2.73c-0.643-0.689-1.396-1.037-2.258-1.037H3.293c-0.862,0-1.667-0.381-2.418-1.13
			c-0.748-0.754-1.021-1.628-0.804-2.634l6.604-33.689c0.211-1.006,0.697-1.881,1.445-2.633c0.752-0.758,1.721-1.132,2.903-1.132
			h51.204C63.084,14.947,63.843,15.296,64.481,15.986z"/>
		<path fill="#282828" d="M149.663,154.433c-7.19,0-14.249-0.818-21.173-2.449c-6.927-1.628-12.804-4.452-17.633-8.474
			c-4.724-4.015-8.134-9.008-10.224-14.975c-2.092-5.958-3.139-11.958-3.139-17.988c0-5.39,0.829-10.789,2.489-16.18
			c1.668-5.393,4.379-10.094,8.137-14.108c0.316-0.502,0.453-1.132,0.398-1.887c-0.054-0.75-0.185-1.379-0.398-1.881
			c-1.831-3.389-3.167-7.025-4.029-10.918c-0.857-3.885-1.285-7.714-1.285-11.479c0-5.895,0.963-11.667,2.897-17.312
			c1.929-5.646,5.045-10.415,9.335-14.304c4.19-3.766,9.396-6.431,15.627-7.999c6.221-1.568,12.557-2.354,18.996-2.354
			c6.441,0,12.743,0.786,18.92,2.354c6.174,1.568,11.413,4.233,15.71,7.999c4.182,3.889,7.244,8.657,9.174,14.304
			c1.932,5.646,2.893,11.418,2.893,17.312c0,3.766-0.398,7.596-1.203,11.479c-0.809,3.893-2.123,7.529-3.948,10.918
			c-0.211,0.502-0.348,1.131-0.399,1.881c-0.057,0.755,0.08,1.385,0.399,1.887c3.653,4.016,6.335,8.717,8.048,14.108
			c1.723,5.391,2.579,10.791,2.579,16.18c0,6.03-1.073,12.03-3.216,17.988c-2.152,5.967-5.586,10.96-10.308,14.975
			c-4.826,4.021-10.655,6.846-17.475,8.474C164.022,153.615,156.965,154.433,149.663,154.433z M149.663,100.199
			c-3.434,0-6.196,0.94-8.291,2.825c-2.093,1.879-3.139,4.392-3.139,7.523c0,3.017,1.046,5.466,3.139,7.352
			c2.094,1.882,4.856,2.824,8.291,2.824c3.438,0,6.202-0.942,8.298-2.824c2.089-1.886,3.139-4.335,3.139-7.352
			c0-3.133-1.05-5.646-3.139-7.523C155.865,101.139,153.101,100.199,149.663,100.199z M149.663,44.873
			c-3.113,0-5.582,0.849-7.405,2.54c-1.832,1.696-2.735,3.925-2.735,6.682c0,2.762,0.903,4.988,2.735,6.684
			c1.823,1.696,4.292,2.539,7.405,2.539c3.112,0,5.609-0.843,7.491-2.539c1.873-1.695,2.816-3.922,2.816-6.684
			c0-2.757-0.944-4.985-2.816-6.682C155.273,45.721,152.776,44.873,149.663,44.873z"/>
		<path fill="#282828" d="M335.324,83.268c0,12.542-1.182,23.302-3.54,32.274c-2.364,8.979-5.771,16.359-10.227,22.128
			c-4.456,5.778-9.926,10.013-16.424,12.712c-6.498,2.696-13.822,4.051-21.98,4.051c-8.153,0-15.458-1.354-21.896-4.051
			c-6.451-2.699-11.897-6.934-16.349-12.712c-4.452-5.769-7.864-13.148-10.224-22.128c-2.361-8.974-3.542-19.732-3.542-32.274
			c0-12.545,1.18-23.307,3.542-32.279c2.358-8.969,5.771-16.341,10.224-22.115c4.45-5.768,9.896-10.004,16.349-12.703
			c6.438-2.697,13.741-4.047,21.896-4.047c8.158,0,15.482,1.351,21.98,4.047c6.498,2.699,11.968,6.936,16.424,12.703
			c4.456,5.773,7.861,13.146,10.227,22.115C334.144,59.962,335.324,70.723,335.324,83.268z M292.493,83.268
			c0-9.787-0.59-17.598-1.77-23.432c-1.186-5.836-3.703-8.755-7.57-8.755c-3.756,0-6.225,2.919-7.404,8.755
			c-1.182,5.833-1.771,13.645-1.771,23.432c0,9.908,0.59,17.748,1.771,23.521c1.181,5.775,3.648,8.657,7.404,8.657
			c3.867,0,6.386-2.882,7.57-8.657C291.904,101.016,292.493,93.177,292.493,83.268z"/>
	</g>
</g>
</svg>
