<?xml version="1.0" encoding="utf-8"?>
<!-- Generator: Adobe Illustrator 22.0.1, SVG Export Plug-In . SVG Version: 6.00 Build 0)  -->
<svg version="1.1" id="Layer_1" xmlns="http://www.w3.org/2000/svg" xmlns:xlink="http://www.w3.org/1999/xlink" x="0px" y="0px"
	 viewBox="0 0 736.1 155.9" style="enable-background:new 0 0 736.1 155.9;" xml:space="preserve">
<style type="text/css">
	.st0{fill:#282828;}
</style>
<g>
	<path class="st0" d="M395.6,86.6c1.5,0,3.1,0.1,5,0.2c1.9,0.1,3.7,0.3,5.6,0.5c1.9,0.2,3.7,0.4,5.5,0.7c1.8,0.3,3.4,0.6,4.8,0.9
		c1.3,0.5,2.1,1.3,2.3,2.5l3.4,16.5c0.2,0.7,0,1.3-0.6,1.7c-0.6,0.4-1.2,0.4-1.8,0c-2.4-1.3-5.1-2.4-8.1-3.3c-3-0.9-6-1.5-8.9-1.8
		c-3.3-0.2-6.1-0.1-8.2,0.3c-2.1,0.4-3.2,1.3-3.3,2.6c0,0.6,0.5,1.1,1.5,1.6c1,0.5,2.3,0.9,4,1.1c2.9,0.5,5.8,1.1,8.9,1.9
		c3.1,0.8,5.9,1.9,8.5,3.2c1.6,0.8,3.1,1.6,4.4,2.6c1.3,1,2.5,2.2,3.5,3.5c1,1.3,1.8,2.8,2.4,4.4c0.6,1.6,0.9,3.5,0.9,5.5
		c-0.1,3.3-0.8,6.5-2.2,9.4c-1.4,2.9-3.5,5.3-6.3,7.1c-3,2.1-6.6,3.4-10.9,4.1c-4.3,0.6-9,1-14.3,1.1c-3.2,0-6.5-0.2-9.9-0.6
		c-3.3-0.4-6.5-1.1-9.5-2.1c-1.8-0.6-2.9-1.7-3.4-3.3l-3.9-16.2c-0.1-0.4-0.1-0.7,0-1c0.1-0.3,0.4-0.5,0.7-0.6
		c0.3-0.1,0.7-0.2,1-0.2c0.4,0,0.7,0.1,1,0.3c1.7,1.1,3.6,2,5.8,2.8c2.1,0.8,4.3,1.4,6.5,1.9c2.2,0.5,4.4,0.8,6.5,1
		c2.1,0.1,4,0.1,5.7,0c1.6-0.2,3-0.5,4-1c1-0.5,1.5-1.2,1.5-2.1c0-0.8-0.7-1.5-2.2-1.9c-1.5-0.5-3.4-0.9-5.9-1.3
		c-2.9-0.5-5.9-1.2-9.1-2.3c-3.2-1.1-6.1-2.5-8.8-4.2c-2.2-1.5-4-3.5-5.2-6.1c-1.2-2.6-1.9-5.6-2-9c0-3.9,0.9-7.1,2.7-9.6
		c1.8-2.6,4.1-4.6,7-6.2c2.9-1.6,6.2-2.6,10-3.3C387.9,86.9,391.7,86.6,395.6,86.6z"/>
	<path class="st0" d="M443.4,151.7c-0.5,0-0.9-0.2-1.3-0.5c-0.4-0.3-0.6-0.8-0.6-1.2V89.5c0-0.5,0.2-1,0.6-1.3
		c0.4-0.4,0.8-0.5,1.3-0.5h21.9c0.5,0,1,0.2,1.3,0.5c0.3,0.4,0.5,0.8,0.5,1.3v20.6c0,1.2,0.6,1.8,1.8,1.8h4.9c1.1,0,1.6-0.6,1.6-1.8
		V89.5c0-0.5,0.2-1,0.6-1.3c0.4-0.4,0.8-0.5,1.3-0.5H499c0.5,0,0.9,0.2,1.2,0.5c0.3,0.4,0.5,0.8,0.5,1.3v60.4c0,0.5-0.2,0.9-0.5,1.2
		c-0.4,0.4-0.8,0.5-1.2,0.5h-21.8c-0.5,0-0.9-0.2-1.3-0.5c-0.4-0.3-0.6-0.8-0.6-1.2v-15.7c0-1.2-0.5-1.8-1.6-1.8h-4.9
		c-1.2,0-1.8,0.6-1.8,1.8v15.7c0,0.5-0.2,0.9-0.5,1.2c-0.3,0.4-0.8,0.5-1.3,0.5H443.4z"/>
	<path class="st0" d="M664,100.5c-2.1-3.2-4.9-5.8-8.3-7.8c-3.4-2-7.3-3.4-11.5-4.3c-4.3-0.9-8.6-1.4-13-1.5c-2.2,0-4.2,0-6.2,0.1
		c-1.9,0.1-3.9,0.1-5.7,0.2c-1.9,0.1-3.8,0.2-5.7,0.3c-1.9,0.1-3.9,0.3-5.9,0.4c-0.5,0.1-0.9,0.2-1.3,0.6c-0.4,0.3-0.6,0.7-0.6,1.2
		v60.2c0,0.5,0.2,0.9,0.6,1.2c0.4,0.4,0.8,0.5,1.3,0.5h22.4c0.5,0,1-0.2,1.3-0.5c0.3-0.3,0.5-0.8,0.5-1.2v-11.1
		c0-0.3,0.1-0.5,0.4-0.5c3.9,0.3,7.9,0,12-0.8c4.1-0.8,7.9-2.3,11.3-4.4c3.4-2.1,6.2-4.9,8.4-8.3c2.2-3.4,3.2-7.6,3.2-12.6
		C667.2,107.6,666.1,103.7,664,100.5z M640.6,117.7c-1.4,1.3-3.8,1.8-7.2,1.7c-0.6,0-1.1-0.2-1.6-0.4c-0.5-0.3-0.8-0.8-0.8-1.5h0
		v-9.2c0-0.6,0.3-1,0.9-1.4c0.6-0.4,1.2-0.6,1.7-0.7c2.4-0.1,4.6,0.3,6.4,1.4c1.8,1,2.7,2.8,2.7,5.1
		C642.7,114.7,642,116.4,640.6,117.7z"/>
	<path class="st0" d="M517.8,120c0-5,0.8-9.8,2.5-14.4c1.6-4.6,4.2-8.5,7.7-11.6c3.1-2.8,6.8-4.8,11-6.2c4.3-1.4,8.7-2.1,13.2-2.1
		c4.4,0,8.8,0.7,13.1,2.1c4.3,1.4,8,3.5,11,6.2c3.5,3.1,6.1,7,7.7,11.6c1.6,4.6,2.5,9.4,2.5,14.4c0,5.1-0.8,9.9-2.5,14.6
		c-1.6,4.6-4.2,8.5-7.7,11.7c-3.1,2.8-6.8,4.8-11,6.1c-4.3,1.3-8.6,2-13.1,2c-4.5,0-8.9-0.7-13.2-2c-4.3-1.3-8-3.4-11-6.1
		c-3.5-3.1-6.1-7-7.7-11.7C518.6,129.9,517.8,125,517.8,120z M542.3,120c-0.3,2.8,0.5,5.2,2.5,7.1c1.9,1.9,4.4,2.9,7.4,2.9
		c3,0,5.5-1,7.3-2.9c1.9-1.9,2.8-4.3,2.6-7.1c0.1-1.4-0.1-2.7-0.6-3.9c-0.5-1.2-1.1-2.2-2-3.1c-0.9-0.9-2-1.6-3.2-2.1
		c-1.3-0.5-2.6-0.7-4.1-0.7c-1.5,0-2.9,0.2-4.1,0.7c-1.2,0.5-2.3,1.2-3.2,2.1c-0.9,0.9-1.6,1.9-2,3.1
		C542.3,117.3,542.2,118.6,542.3,120z"/>
	<path class="st0" d="M314.9,39.2c0-3.6,0.6-7.1,1.8-10.4c1.2-3.3,3-6.1,5.6-8.4c2.2-2,4.9-3.5,8-4.5c3.1-1,6.3-1.5,9.5-1.5
		c3.2,0,6.3,0.5,9.4,1.5c3.1,1,5.7,2.5,8,4.5c2.5,2.3,4.4,5.1,5.6,8.4c1.2,3.3,1.8,6.8,1.8,10.4c0,3.7-0.6,7.2-1.8,10.5
		c-1.2,3.3-3,6.2-5.6,8.4c-2.2,2-4.9,3.5-8,4.4c-3.1,1-6.2,1.5-9.4,1.5c-3.3,0-6.4-0.5-9.5-1.5c-3.1-1-5.8-2.4-8-4.4
		c-2.5-2.3-4.4-5.1-5.6-8.4C315.5,46.3,314.9,42.8,314.9,39.2z M332.6,39.2c-0.2,2,0.4,3.8,1.8,5.1c1.4,1.4,3.2,2.1,5.3,2.1
		c2.2,0,3.9-0.7,5.3-2.1c1.4-1.4,2-3.1,1.9-5.1c0.1-1-0.1-1.9-0.4-2.8c-0.3-0.9-0.8-1.6-1.5-2.2c-0.6-0.6-1.4-1.1-2.3-1.5
		c-0.9-0.4-1.9-0.5-3-0.5c-1.1,0-2.1,0.2-3,0.5c-0.9,0.4-1.7,0.9-2.3,1.5c-0.6,0.6-1.1,1.4-1.5,2.2
		C332.6,37.3,332.5,38.2,332.6,39.2z"/>
	<g>
		<path class="st0" d="M58.5,28.9c0.6,0.6,0.9,1.4,0.9,2.5v117.1c0,1-0.3,1.9-0.9,2.6c-0.6,0.7-1.3,1-2,1H18.2c-0.9,0-1.6-0.3-2.2-1
			c-0.6-0.7-0.9-1.5-0.9-2.6V68.8c0-1-0.3-1.9-0.9-2.5c-0.6-0.6-1.3-0.9-2-0.9H3c-0.8,0-1.5-0.3-2.2-1c-0.7-0.7-0.9-1.5-0.7-2.4
			l6-30.5c0.2-0.9,0.6-1.7,1.3-2.4c0.7-0.7,1.6-1,2.6-1h46.4C57.2,28,57.9,28.3,58.5,28.9z"/>
		<path class="st0" d="M135.7,154.4c-6.5,0-12.9-0.7-19.2-2.2c-6.3-1.5-11.6-4-16-7.7c-4.3-3.6-7.4-8.2-9.3-13.6
			c-1.9-5.4-2.8-10.8-2.8-16.3c0-4.9,0.8-9.8,2.3-14.7c1.5-4.9,4-9.2,7.4-12.8c0.3-0.5,0.4-1,0.4-1.7c0-0.7-0.2-1.3-0.4-1.7
			c-1.7-3.1-2.9-6.4-3.7-9.9c-0.8-3.5-1.2-7-1.2-10.4c0-5.3,0.9-10.6,2.6-15.7c1.7-5.1,4.6-9.4,8.5-13c3.8-3.4,8.5-5.8,14.2-7.3
			c5.6-1.4,11.4-2.1,17.2-2.1c5.8,0,11.6,0.7,17.2,2.1c5.6,1.4,10.3,3.8,14.2,7.3c3.8,3.5,6.6,7.8,8.3,13c1.8,5.1,2.6,10.4,2.6,15.7
			c0,3.4-0.4,6.9-1.1,10.4c-0.7,3.5-1.9,6.8-3.6,9.9c-0.2,0.5-0.3,1-0.4,1.7c-0.1,0.7,0.1,1.3,0.4,1.7c3.3,3.6,5.7,7.9,7.3,12.8
			c1.6,4.9,2.3,9.8,2.3,14.7c0,5.5-1,10.9-2.9,16.3c-2,5.4-5.1,9.9-9.3,13.6c-4.4,3.6-9.7,6.2-15.8,7.7
			C148.7,153.7,142.3,154.4,135.7,154.4z M135.7,105.3c-3.1,0-5.6,0.9-7.5,2.6c-1.9,1.7-2.8,4-2.8,6.8c0,2.7,0.9,5,2.8,6.7
			c1.9,1.7,4.4,2.6,7.5,2.6c3.1,0,5.6-0.9,7.5-2.6c1.9-1.7,2.8-3.9,2.8-6.7c0-2.8-1-5.1-2.8-6.8
			C141.3,106.1,138.8,105.3,135.7,105.3z M135.7,55.1c-2.8,0-5.1,0.8-6.7,2.3c-1.7,1.5-2.5,3.6-2.5,6.1c0,2.5,0.8,4.5,2.5,6.1
			c1.7,1.5,3.9,2.3,6.7,2.3c2.8,0,5.1-0.8,6.8-2.3c1.7-1.5,2.6-3.6,2.6-6.1c0-2.5-0.9-4.5-2.6-6.1C140.8,55.9,138.5,55.1,135.7,55.1
			z"/>
		<path class="st0" d="M304,89.9c0,11.4-1.1,21.1-3.2,29.3c-2.1,8.1-5.2,14.8-9.3,20.1c-4,5.2-9,9.1-14.9,11.5
			c-5.9,2.4-12.5,3.7-19.9,3.7c-7.4,0-14-1.2-19.8-3.7c-5.8-2.4-10.8-6.3-14.8-11.5c-4-5.2-7.1-11.9-9.3-20.1
			c-2.1-8.1-3.2-17.9-3.2-29.3c0-11.4,1.1-21.1,3.2-29.3c2.1-8.1,5.2-14.8,9.3-20c4-5.2,9-9.1,14.8-11.5c5.8-2.4,12.5-3.7,19.8-3.7
			c7.4,0,14,1.2,19.9,3.7c5.9,2.4,10.8,6.3,14.9,11.5c4,5.2,7.1,11.9,9.3,20C302.9,68.8,304,78.5,304,89.9z M265.2,89.9
			c0-8.9-0.5-16-1.6-21.2c-1.1-5.3-3.4-7.9-6.9-7.9c-3.4,0-5.6,2.6-6.7,7.9c-1.1,5.3-1.6,12.4-1.6,21.2c0,9,0.5,16.1,1.6,21.3
			c1.1,5.2,3.3,7.8,6.7,7.8c3.5,0,5.8-2.6,6.9-7.8C264.6,106,265.2,98.9,265.2,89.9z"/>
	</g>
</g>
</svg>
