<?xml version="1.0" encoding="utf-8"?>
<!-- Generator: Adobe Illustrator 16.0.0, SVG Export Plug-In . SVG Version: 6.00 Build 0)  -->
<!DOCTYPE svg PUBLIC "-//W3C//DTD SVG 1.1//EN" "http://www.w3.org/Graphics/SVG/1.1/DTD/svg11.dtd">
<svg version="1.1" id="Layer_1" xmlns="http://www.w3.org/2000/svg" xmlns:xlink="http://www.w3.org/1999/xlink" x="0px" y="0px"
	 width="402.029px" height="80px" viewBox="0 -18.758 402.029 80" enable-background="new 0 -18.758 402.029 80"
	 xml:space="preserve">
<path fill="#231F20" d="M373.725,52.147V11.833c0-1.288-1.019-2.304-2.305-2.304c-1.28,0-2.297,1.016-2.297,2.304v42.341
	c0,1.289,1.017,2.304,2.297,2.304h20.867c1.22,0,2.168-0.95,2.168-2.166c0-1.218-0.948-2.166-2.168-2.166L373.725,52.147
	L373.725,52.147z"/>
<path fill="#231F20" d="M344.877,56.422c1.149,0,2.099-0.95,2.099-2.097c0-1.148-0.949-2.095-2.099-2.095h-20.192V34.992h14.908
	c1.149,0,2.099-0.945,2.099-2.095c0-1.151-0.949-2.097-2.099-2.097h-14.908V13.725h19.448c1.149,0,2.098-0.944,2.098-2.093
	c0-1.15-0.948-2.097-2.098-2.097h-21.747c-1.284,0-2.3,1.014-2.3,2.3v42.284c0,1.289,1.014,2.304,2.3,2.304L344.877,56.422
	L344.877,56.422z"/>
<path fill="#231F20" d="M296.601,11.812c0-1.217-1.012-2.304-2.3-2.304c-1.286,0-2.3,1.086-2.3,2.304v42.287
	c0,1.216,1.013,2.301,2.3,2.301c1.288,0,2.3-1.085,2.3-2.301V11.812z"/>
<path fill="#231F20" d="M247.727,48.437c0.822,0,1.568-0.408,2.046-1.293l14.296-26.472v33.482c0,1.228,1.021,2.246,2.243,2.246
	s2.242-1.019,2.242-2.246V11.754c0-1.227-1.021-2.245-2.242-2.245s-1.768,0.82-2.039,1.292l-16.547,30.836L231.25,10.8
	c-0.337-0.678-1.019-1.292-2.041-1.292c-1.222,0-2.236,1.019-2.236,2.245v42.401c0,1.228,1.015,2.246,2.236,2.246
	c1.228,0,2.246-1.019,2.246-2.246V20.673l14.231,26.472C246.162,48.098,247.051,48.437,247.727,48.437"/>
<path fill="#231F20" d="M145.354,9.536c-1.215,0-2.231,1.016-2.231,2.235v34.946l-23.994-36.231
	c-0.338-0.476-1.016-0.948-1.826-0.948c-1.215,0-2.229,1.016-2.229,2.235v42.394c0,1.221,1.014,2.235,2.229,2.235
	c1.216,0,2.231-1.015,2.231-2.235V19.483l23.856,35.969c0.477,0.609,1.084,0.95,1.896,0.95c1.287,0,2.297-1.015,2.297-2.301V11.772
	C147.583,10.552,146.573,9.536,145.354,9.536"/>
<path fill="#231F20" d="M91.895,56.4c1.422,0,2.37-1.085,2.37-2.301c0-0.205-0.067-0.684-0.2-1.018L77.534,11.104
	c-0.343-0.812-1.083-1.556-2.236-1.556c-1.221,0-1.833,0.744-2.17,1.556L56.596,53.082c-0.135,0.271-0.204,0.746-0.204,1.018
	c0,1.216,1.017,2.301,2.303,2.301H91.895z"/>
<path fill="#231F20" d="M203.839,56.4c1.423,0,2.371-1.085,2.371-2.301c0-0.205-0.066-0.684-0.201-1.018l-16.531-41.978
	c-0.342-0.812-1.085-1.556-2.236-1.556c-1.22,0-1.832,0.744-2.17,1.556l-16.53,41.978c-0.135,0.271-0.204,0.746-0.204,1.018
	c0,1.216,1.018,2.301,2.304,2.301H203.839z"/>
<path fill="#231F20" d="M22.038,56.381c6.234,0,12.332-2.839,15.311-7.17c0.272-0.414,0.404-0.749,0.404-1.293
	c0-1.215-0.947-2.165-2.166-2.165c-0.541,0-1.289,0.201-1.761,0.878c-2.642,3.796-7.319,5.555-11.79,5.555
	c-10.436,0-16.398-5.421-16.398-19.518c0-13.281,5.963-19.158,16.398-19.158c5.083,0,9.486,2.51,11.79,5.694
	c0.542,0.674,1.154,0.88,1.761,0.88c1.218,0,2.166-0.95,2.166-2.167c0-0.476-0.133-0.947-0.471-1.423
	c-3.185-4.401-8.81-7.178-15.246-7.178c-13.144,0-21.13,7.294-21.13,23.352C0.907,49.34,8.894,56.381,22.038,56.381"/>
<path fill="#231F20" d="M115.655,0.142c-1.219,0-2.304,1.014-2.304,2.3c0,1.283,1.084,2.297,2.304,2.297h29.604
	c1.218,0,2.302-1.015,2.302-2.297c0-1.285-1.084-2.3-2.302-2.3H115.655z"/>
<g>
	<path fill="#231F20" d="M393.687,13.668c0-2.155,1.758-3.911,3.933-3.911c2.156,0,3.911,1.756,3.911,3.911
		c0,2.176-1.755,3.932-3.911,3.932C395.445,17.599,393.687,15.843,393.687,13.668z M400.796,13.668c0-1.757-1.418-3.172-3.175-3.172
		c-1.766,0-3.193,1.415-3.193,3.172c0,1.777,1.428,3.194,3.193,3.194C399.377,16.861,400.796,15.445,400.796,13.668z
		 M399.566,15.814h-0.967l-0.938-1.797h-0.83v1.797h-0.827v-4.241h2.045c0.358,0,0.829,0.009,1.147,0.209
		c0.379,0.25,0.498,0.659,0.498,1.098c0,0.769-0.408,1.087-1.157,1.137L399.566,15.814z M398.068,13.388c0.47,0.01,0.8-0.1,0.8-0.64
		c0-0.548-0.602-0.548-1.01-0.548h-1.028v1.188H398.068z"/>
</g>
</svg>
