<?xml version="1.0" encoding="utf-8"?>
<!-- Generator: Adobe Illustrator 16.0.0, SVG Export Plug-In . SVG Version: 6.00 Build 0)  -->
<!DOCTYPE svg PUBLIC "-//W3C//DTD SVG 1.1//EN" "http://www.w3.org/Graphics/SVG/1.1/DTD/svg11.dtd">
<svg id ="ddd" version="1.1" xmlns="http://www.w3.org/2000/svg" xmlns:xlink="http://www.w3.org/1999/xlink" x="0px" y="0px" width="60px"
	 height="50px" viewBox="0 0 60 50" enable-background="new 0 0 60 50" xml:space="preserve">



		<rect id="back" fill="blue" opacity="1" width="60" height="50"/>


	<g id="bot">
		<path fill="#ffffff" d="M55.281,38.081c-5.068,0-47.639,0-49.486,0c-1.854,0-1.815,4.843,0,4.843c1.981,0,45.084,0,49.486,0
			C57.134,42.924,57.098,38.081,55.281,38.081z">
			<animate id="botanim"
			type="translate" 
			attributeName="d"
			begin="frontanim.end"
			keyTimes="0;1"
		    dur=".5s" 
		    fill="freeze"
			values="
			M55.281,38.081c-5.068,0-47.639,0-49.486,0c-1.854,0-1.815,4.843,0,4.843c1.981,0,45.084,0,49.486,0
			C57.134,42.924,57.098,38.081,55.281,38.081z;
			M47.937,7.245c-3.884,3.259-36.494,30.622-37.909,31.809c-1.42,1.192,1.723,4.877,3.113,3.71
			c1.518-1.272,34.536-28.979,37.909-31.809C52.468,9.764,49.327,6.078,47.937,7.245z
			"/>
			<animate id="botcolor"
             attributeName="fill"
             from="#ffffff" to="282828" dur=".5s"
             fill="freeze"
             begin="frontanim.end" 
             />
	   </path>
	</g>


	<g id="mid">
		<path fill="#ffffff" d="M55.281,22.35c-5.068,0-47.639,0-49.486,0c-1.854,0-1.815,4.841,0,4.841c1.981,0,45.084,0,49.486,0
			C57.134,27.191,57.098,22.35,55.281,22.35z">
			<animate id="midanim"
             attributeName="opacity"
             from="1" to="0" dur=".5s"
             fill="freeze"
             begin="frontanim.end" 
             />
         </path>
	</g>

	<g id="top">
		<path fill="#ffffff" d="M55.281,6.87c-5.068,0-47.639,0-49.486,0c-1.854,0-1.815,4.841,0,4.841c1.981,0,45.084,0,49.486,0
			C57.134,11.711,57.098,6.87,55.281,6.87z">
			<animate id="topanim"
			type="translate" 
			attributeName="d"
			keyTimes="0;1"
		    dur=".5s" 
		    begin="frontanim.end"
		    fill="freeze"
			values="
			M55.281,6.87c-5.068,0-47.639,0-49.486,0c-1.854,0-1.815,4.841,0,4.841c1.981,0,45.084,0,49.486,0
			C57.134,11.711,57.098,6.87,55.281,6.87z;
			M51.048,39.051C47.166,35.792,14.554,8.429,13.14,7.241c-1.42-1.192-4.502,2.542-3.112,3.708
			c1.518,1.273,34.537,28.979,37.909,31.809C49.355,43.949,52.439,40.218,51.048,39.051z
			"/>
			<animate id="botcolor"
             attributeName="fill"
             from="#ffffff" to="282828" dur=".5s"
             fill="freeze"
             begin="frontanim.end" 
             />
		</path>
	</g>

	<g id="front">
		<rect fill="#ffffff" opacity="0" width="60" height="50">
			<animate id="frontanim" attributeName="width" from="60" to="60" dur=".01s" begin="click"/>
		</rect>
	</g>

</svg>