<?xml version="1.0" encoding="utf-8"?>
<!-- Generator: Adobe Illustrator 16.0.0, SVG Export Plug-In . SVG Version: 6.00 Build 0)  -->
<!DOCTYPE svg PUBLIC "-//W3C//DTD SVG 1.1//EN" "http://www.w3.org/Graphics/SVG/1.1/DTD/svg11.dtd">
<svg version="1.1" xmlns="http://www.w3.org/2000/svg" xmlns:xlink="http://www.w3.org/1999/xlink" x="0px" y="0px" width="60px"
	 height="50px" viewBox="0 0 60 50" enable-background="new 0 0 60 50" xml:space="preserve">
<g id="bot_1_">
	<g id="bot">
		<path fill="#FFFFFF" d="M55.281,38.081c-5.068,0-47.639,0-49.486,0c-1.854,0-1.815,4.843,0,4.843c1.981,0,45.084,0,49.486,0
			C57.134,42.924,57.098,38.081,55.281,38.081z"/>
	</g>
</g>
<g id="mid_1_">
	<g id="mid">
		<path fill="#FFFFFF" d="M55.281,22.35c-5.068,0-47.639,0-49.486,0c-1.854,0-1.815,4.841,0,4.841c1.981,0,45.084,0,49.486,0
			C57.134,27.191,57.098,22.35,55.281,22.35z"/>
	</g>
</g>
<g id="top_1_">
	<g id="top">
		<path fill="#FFFFFF" d="M55.281,6.87c-5.068,0-47.639,0-49.486,0c-1.854,0-1.815,4.841,0,4.841c1.981,0,45.084,0,49.486,0
			C57.134,11.711,57.098,6.87,55.281,6.87z"/>
	</g>
</g>
</svg>
