<?xml version="1.0" encoding="utf-8"?>
<!-- Generator: Adobe Illustrator 16.0.0, SVG Export Plug-In . SVG Version: 6.00 Build 0)  -->
<!DOCTYPE svg PUBLIC "-//W3C//DTD SVG 1.1//EN" "http://www.w3.org/Graphics/SVG/1.1/DTD/svg11.dtd">
<svg version="1.1" id="Layer_1" xmlns="http://www.w3.org/2000/svg" xmlns:xlink="http://www.w3.org/1999/xlink" x="0px" y="0px"
	 width="113.391px" height="113.391px" viewBox="0 0 113.391 113.391" enable-background="new 0 0 113.391 113.391"
	 xml:space="preserve">
<path id="instagram-6-icon" fill="#282828" d="M87.523,50.99h-7.063c0.516,1.997,0.818,4.086,0.818,6.243
	c0,13.792-11.178,24.969-24.966,24.969c-13.786,0-24.964-11.177-24.964-24.969c0-2.156,0.305-4.246,0.819-6.243h-7.065v34.333
	c0,1.724,1.398,3.117,3.124,3.117h56.172c1.728,0,3.124-1.395,3.124-3.117L87.523,50.99L87.523,50.99z M87.523,29.144
	c0-1.723-1.396-3.121-3.123-3.121h-9.36c-1.725,0-3.121,1.398-3.121,3.121v9.365c0,1.722,1.396,3.121,3.121,3.121h9.36
	c1.727,0,3.123-1.399,3.123-3.121V29.144z M56.312,41.63c-8.617,0-15.603,6.984-15.603,15.604c0,8.617,6.985,15.607,15.603,15.607
	s15.605-6.99,15.605-15.607C71.917,48.615,64.929,41.63,56.312,41.63 M87.523,97.807h-62.42c-5.169,0-9.36-4.191-9.36-9.366V26.024
	c0-5.171,4.191-9.36,9.36-9.36h62.42c5.171,0,9.36,4.189,9.36,9.36v62.417C96.883,93.615,92.694,97.807,87.523,97.807"/>
</svg>
