<?xml version="1.0" encoding="utf-8"?>
<!-- Generator: Adobe Illustrator 16.0.0, SVG Export Plug-In . SVG Version: 6.00 Build 0)  -->
<!DOCTYPE svg PUBLIC "-//W3C//DTD SVG 1.1//EN" "http://www.w3.org/Graphics/SVG/1.1/DTD/svg11.dtd">
<svg version="1.1" xmlns="http://www.w3.org/2000/svg" xmlns:xlink="http://www.w3.org/1999/xlink" x="0px" y="0px"
	 width="402.52px" height="260.787px" viewBox="0 0 402.52 260.787" enable-background="new 0 0 402.52 260.787"
	 xml:space="preserve">
<g id="fondo">
</g>
<g id="Layer_1">
	<polygon fill="#242021" points="9.363,129.535 11.739,131.778 135.417,7.045 133.437,4.934 	"/>
	<polygon fill="#242021" points="133.817,253.99 136.194,256.234 259.872,131.501 257.892,129.389 	"/>
	<polygon fill="#242021" points="56.484,106.436 56.484,142.733 77.603,142.733 77.603,136.662 63.347,136.662 63.347,106.436 	"/>
	<polygon fill="#242021" points="73.346,172.501 83.394,188.728 86.462,188.728 76.414,172.501 	"/>
	<path fill="#242021" d="M98.722,105.445c-10.57,0-19.14,8.569-19.14,19.14s8.569,19.139,19.14,19.139s19.139-8.568,19.139-19.139
		S109.292,105.445,98.722,105.445z M98.722,136.769c-6.729,0-12.184-5.455-12.184-12.184s5.455-12.184,12.184-12.184
		s12.184,5.456,12.184,12.184S105.451,136.769,98.722,136.769z"/>
	<polygon fill="#242021" points="124.724,105.776 124.724,143.097 131.753,143.097 131.753,119.932 153.037,143.097 
		155.611,143.097 155.611,105.776 148.681,105.776 148.681,128.446 127.694,105.776 	"/>
	<path fill="#242021" d="M172.242,105.776c0,0,0,22.902,0,26.002c0,3.102-2.97,4.884-4.851,4.884s-3.96-2.079-3.96-2.079
		l-4.059,4.257c0,0,2.276,4.257,8.117,4.257s11.286-4.356,11.286-8.02c0-3.662,0-29.301,0-29.301H172.242z"/>
	<g>
		<polygon fill="#242021" points="182.01,143.097 189.137,143.097 199.83,119.239 210.917,143.097 217.912,143.097 201.017,105.776 
			199.169,105.776 		"/>
		<polygon fill="#242021" points="191.25,130.59 209.2,130.59 209.2,136.133 190.062,136.133 		"/>
	</g>
	<polygon fill="#242021" points="186.588,60.84 186.588,77.594 196.335,77.594 196.335,74.791 189.755,74.791 189.755,60.84 	"/>
	<g>
		<polygon fill="#242021" points="198.705,77.761 201.994,77.761 206.929,66.75 212.045,77.761 215.274,77.761 207.476,60.536 
			206.624,60.536 		"/>
		<polygon fill="#242021" points="202.968,71.989 211.253,71.989 211.253,74.547 202.42,74.547 		"/>
	</g>
	<polygon fill="#242021" points="66.355,172.275 65.357,172.275 60.636,182.893 55.558,172.3 54.588,172.3 51.617,188.728 
		54.373,188.728 55.993,180.26 60.047,188.728 61.18,188.728 64.922,180.235 66.542,188.703 69.534,188.703 	"/>
	<polygon fill="#242021" points="85.669,172.501 75.622,188.728 72.554,188.728 82.602,172.501 	"/>
</g>
</svg>
