<?xml version="1.0" encoding="utf-8"?>
<!-- Generator: Adobe Illustrator 16.0.0, SVG Export Plug-In . SVG Version: 6.00 Build 0)  -->
<!DOCTYPE svg PUBLIC "-//W3C//DTD SVG 1.1//EN" "http://www.w3.org/Graphics/SVG/1.1/DTD/svg11.dtd">
<svg version="1.1" id="Layer_1" xmlns="http://www.w3.org/2000/svg" xmlns:xlink="http://www.w3.org/1999/xlink" x="0px" y="0px"
	 width="192.5px" height="192.5px" viewBox="0 0 192.5 192.5" enable-background="new 0 0 192.5 192.5" xml:space="preserve">
<g id="Layer_1_2_">
	<g id="Layer_1_1_" display="none">
		<rect x="6.5" y="13" display="inline" fill="none" width="530" height="400"/>
		<g display="inline">
			<path fill="#FFFFFF" d="M371.5,135h-19c-5.5,0-11.102,4.363-12.445,9.695l-23.105,91.605C315.602,241.637,310,246,304.5,246h-88
				c-5.5,0-11.007-4.387-12.238-9.746l-12.523-54.508C190.507,176.386,194,172,199.5,172h134"/>
			
				<path fill="none" stroke="#000000" stroke-width="10" stroke-linecap="round" stroke-linejoin="round" stroke-miterlimit="10" d="
				M371.5,135h-19c-5.5,0-11.102,4.363-12.445,9.695l-23.105,91.605C315.602,241.637,310,246,304.5,246h-88
				c-5.5,0-11.007-4.387-12.238-9.746l-12.523-54.508C190.507,176.386,194,172,199.5,172h134"/>
		</g>
		
			<path display="inline" fill="none" stroke="#000000" stroke-width="10" stroke-linecap="round" stroke-linejoin="round" stroke-miterlimit="10" d="
			M213.5,267h98.167c5.209,0,9.571-4.791,9.571-10s-4.08-10-9.29-10H257.5"/>
		
			<line display="inline" fill="none" stroke="#000000" stroke-width="5" stroke-linecap="round" stroke-linejoin="round" stroke-miterlimit="10" x1="200.883" y1="204.05" x2="243.45" y2="246.617"/>
		
			<line display="inline" fill="none" stroke="#000000" stroke-width="5" stroke-linecap="round" stroke-linejoin="round" stroke-miterlimit="10" x1="207.833" y1="177" x2="276.5" y2="245.667"/>
		
			<line display="inline" fill="none" stroke="#000000" stroke-width="5" stroke-linecap="round" stroke-linejoin="round" stroke-miterlimit="10" x1="241.834" y1="177" x2="310.5" y2="245.667"/>
		
			<line display="inline" fill="none" stroke="#000000" stroke-width="5" stroke-linecap="round" stroke-linejoin="round" stroke-miterlimit="10" x1="274.9" y1="176.066" x2="317.93" y2="219.096"/>
		
			<line display="inline" fill="none" stroke="#000000" stroke-width="5" stroke-linecap="round" stroke-linejoin="round" stroke-miterlimit="10" x1="308.047" y1="175.213" x2="327.621" y2="194.788"/>
		<circle display="inline" cx="228" cy="284.5" r="12.5"/>
		<circle display="inline" cx="304" cy="284.5" r="12.5"/>
	</g>
</g>
<g id="Layer_2_1_" display="none">
	<g id="Layer_2_2_" display="inline">
		<path fill="#1A1A1A" d="M5.918,26c0,2.66,2.156,5,4.817,5h18.303c3.078,0,6.567,2.534,7.32,5.519l20.517,79.483
			c0.559,2.213,1.627,4.27,3.05,6.085c-4.321,2.49-7.331,7.167-7.331,12.578c0,7.833,6.428,14.335,14.038,14.335h4.856
			c-5.435,2-9.512,6.166-9.512,11.947c0,6.65,5.391,12.133,12.042,12.133c6.65,0,12.042-5.527,12.042-12.178
			c0-5.78-4.077-9.902-9.512-11.902h68.154c-5.435,2-9.513,6.166-9.513,11.947c0,6.65,5.393,12.133,12.043,12.133
			c6.648,0,12.041-5.527,12.041-12.178c0-5.78-4.076-9.902-9.512-11.902H161.2c2.659,0,4.815-2.34,4.815-5s-2.156-5-4.815-5H66.632
			c-2.264,0-4.184-2.814-4.184-5.291c0-2.521,1.97-4.709,4.134-4.709h91.729c7.553,0,14.793-5.84,16.484-13.201l12.062-52.543
			c0.896-3.899,0.082-7.79-2.232-10.696c-2.314-2.907-5.938-4.559-9.938-4.559H49.673l-3.975-13.986
			C43.862,26.735,36.544,21,29.039,21H10.735C8.075,21,5.918,23.34,5.918,26z M54.697,68.272L52.104,58h12.865 M62.672,99.505
			L103.754,58.6c0.23-0.23,0.402-0.6,0.52-0.6 M104.273,58h26.203l-60.502,60.298c-1.798-1.051-3.294-2.864-3.757-4.698
			l-3.545-14.095 M136.311,58h26.92l-61.562,61H75.725l59.884-59.603C136.072,58.933,136.305,58,136.311,58z M177.469,61.067
			l-4.646,20.216c-0.429,0.097-0.839,0.228-1.171,0.561L134.42,119h-25.941l59.883-59.603c0.467-0.464,0.697-1.397,0.703-1.397
			h5.621c1.066,0,1.92,0.117,2.402,0.725S177.708,60.029,177.469,61.067z M158.311,119h-17.08l29.72-29.64l-5.541,24.063
			C164.727,116.381,161.346,119,158.311,119z M61.298,94.321L56.07,73.505"/>
		<polygon fill="#FFFFFF" points="53.75,58 172.584,58 175.77,68.459 166.816,107.305 148.917,119 71.583,119 69.974,118.298 
			63.642,103.359 53.142,62.111 		"/>
	</g>
</g>
<path fill="#FFFFFF" d="M184.625,52.56c-2.314-2.907-5.938-4.559-9.938-4.559H49.673l-3.975-13.986
	C43.862,26.735,36.544,21,29.039,21H10.735c-2.66,0-4.817,2.34-4.817,5s2.156,5,4.817,5h18.303c3.078,0,6.567,2.534,7.32,5.519
	l20.517,79.483c0.559,2.213,1.627,4.27,3.05,6.085c-4.321,2.49-7.331,7.167-7.331,12.578c0,7.833,6.428,14.335,14.038,14.335h4.856
	c-5.435,2-9.512,6.166-9.512,11.947c0,6.65,5.391,12.133,12.042,12.133c6.65,0,12.042-5.527,12.042-12.178
	c0-5.78-4.077-9.902-9.512-11.902h68.154c-5.435,2-9.513,6.166-9.513,11.947c0,6.65,5.393,12.133,12.043,12.133
	c6.648,0,12.041-5.527,12.041-12.178c0-5.78-4.076-9.902-9.512-11.902H161.2c2.659,0,4.815-2.34,4.815-5s-2.156-5-4.815-5H66.632
	c-2.264,0-4.184-2.814-4.184-5.291c0-2.521,1.97-4.709,4.134-4.709h91.729c7.553,0,14.793-5.84,16.484-13.201l12.062-52.543
	C187.753,59.357,186.939,55.466,184.625,52.56z"/>
</svg>
