<?xml version="1.0" encoding="utf-8"?>
<!-- Generator: Adobe Illustrator 19.0.0, SVG Export Plug-In . SVG Version: 6.00 Build 0)  -->
<svg version="1.1" id="Layer_1" xmlns="http://www.w3.org/2000/svg" xmlns:xlink="http://www.w3.org/1999/xlink" x="0px" y="0px"
	 viewBox="-194 176.2 402.5 260.8" style="enable-background:new -194 176.2 402.5 260.8;" xml:space="preserve">
<style type="text/css">
	.st0{fill:#242021;}
</style>
<g id="fondo">
</g>
<g>
	<path class="st0" d="M-26.9,307.4c19.4,0,35.2,15.5,35.2,34.4c0,19-15.8,34.4-35.2,34.4c-19.1,0-35.2-15.5-35.2-34.4
		C-62.2,322.9-46.1,307.4-26.9,307.4z M-26.9,359.9c10.2,0,18-8,18-18c0-10-7.8-18-18-18c-10,0-18,8-18,18
		C-45,351.9-36.9,359.9-26.9,359.9z"/>
	<path class="st0" d="M-164.7,226.1h55.2v12.4l-31,37.5h31v16.4h-56.3V280l30.9-37.4h-29.9V226.1z"/>
	<path class="st0" d="M-102.4,359.4c-9.9,0-18-8-18-18c0-0.4,0-0.7,0-1.1l13.4-15.9c1.5-0.4,3-0.6,4.5-0.6c7,0,12.9,3.8,15.9,9.4
		l15.5-7c-4.6-8.6-12.7-15.2-22.5-17.8L10.8,185.2l-5.1-4.4l-45.5,53.8c-6.4-6.1-15-9.8-24.5-9.8c-19.1,0-35.2,15.5-35.2,34.4
		c0,11.6,6,21.9,15.1,28.1l-99.3,117.3l5.1,4.4l44.6-52.7c5.8,11.5,17.9,19.4,31.6,19.4c13.7,0,25.7-7.7,31.5-19.1l-15.6-6.8
		C-89.5,355.5-95.3,359.4-102.4,359.4z M-64.4,241.3c5.6,0,10.4,2.4,13.7,6.2l-23.1,27.3c-5.2-3.1-8.7-8.8-8.7-15.4
		C-82.4,249.3-74.3,241.3-64.4,241.3z"/>
	<g>
		<g>
			<path class="st0" d="M-133.4,396.9l1.3,0l0,5.6c0,0.5,0.2,0.8,0.7,0.8c0.5,0,0.7-0.3,0.7-0.8l0-5.6l1.3,0l0,5.5
				c0,0.6-0.2,1.1-0.5,1.5c-0.3,0.3-0.8,0.5-1.4,0.5c-0.6,0-1.1-0.2-1.4-0.5c-0.3-0.3-0.5-0.8-0.5-1.5L-133.4,396.9z"/>
			<path class="st0" d="M-126.8,404.4l0-7.4l1.2,0l1.5,4.2l0,0l0-4.2l1.1,0l0,7.4l-1.1,0l-1.6-4.6h0l0,4.6L-126.8,404.4z"/>
			<path class="st0" d="M-116.3,404.4l0-7.4l1.8,0c0.8,0,1.4,0.2,1.7,0.5c0.4,0.3,0.6,0.9,0.6,1.7c0,0.4,0,0.7-0.1,1
				c-0.1,0.3-0.2,0.5-0.4,0.7c-0.2,0.2-0.4,0.3-0.7,0.4c-0.3,0.1-0.6,0.1-1,0.1l-0.6,0l0,3L-116.3,404.4z M-115,400.4l0.5,0
				c0.2,0,0.4,0,0.5,0c0.1,0,0.3-0.1,0.3-0.2c0.1-0.1,0.1-0.2,0.2-0.4c0-0.1,0.1-0.3,0.1-0.5c0-0.2,0-0.4,0-0.5
				c0-0.1-0.1-0.3-0.2-0.3c-0.1-0.1-0.2-0.1-0.3-0.2c-0.1,0-0.3-0.1-0.5-0.1l-0.5,0L-115,400.4z"/>
			<path class="st0" d="M-108.3,404.5l-1.3,0l0-7.4l1.8,0c0.7,0,1.2,0.2,1.6,0.5c0.4,0.3,0.5,0.9,0.5,1.7c0,0.3,0,0.6-0.1,0.8
				c-0.1,0.2-0.1,0.4-0.2,0.5c-0.1,0.1-0.2,0.3-0.3,0.4c-0.1,0.1-0.2,0.2-0.3,0.2l1.1,3.4l-1.3,0l-0.9-3.1c-0.1,0-0.2,0-0.3,0
				c-0.1,0-0.2,0-0.4,0L-108.3,404.5z M-108.3,400.4l0.5,0c0.2,0,0.3,0,0.4,0c0.1,0,0.2-0.1,0.3-0.2c0.1-0.1,0.1-0.2,0.2-0.4
				c0-0.1,0.1-0.3,0.1-0.5c0-0.4-0.1-0.7-0.2-0.9c-0.1-0.2-0.4-0.2-0.7-0.2l-0.5,0L-108.3,400.4z"/>
			<path class="st0" d="M-102.9,398.9c0-0.3,0-0.5,0.1-0.7c0.1-0.2,0.2-0.4,0.4-0.6c0.2-0.2,0.4-0.3,0.6-0.4
				c0.2-0.1,0.5-0.1,0.9-0.1c0.3,0,0.6,0.1,0.9,0.2c0.2,0.1,0.4,0.2,0.6,0.4c0.2,0.2,0.3,0.4,0.4,0.6c0.1,0.2,0.1,0.5,0.1,0.7l0,3.8
				c0,0.3,0,0.5-0.1,0.7c-0.1,0.2-0.2,0.4-0.4,0.6c-0.2,0.2-0.4,0.3-0.6,0.4c-0.2,0.1-0.5,0.1-0.9,0.1c-0.3,0-0.6-0.1-0.9-0.2
				c-0.2-0.1-0.4-0.2-0.6-0.4c-0.2-0.2-0.3-0.4-0.4-0.6c-0.1-0.2-0.1-0.5-0.1-0.7L-102.9,398.9z M-101.6,402.7c0,0.3,0,0.5,0.1,0.6
				c0.1,0.1,0.3,0.2,0.5,0.2c0.3,0,0.4-0.1,0.5-0.2c0.1-0.1,0.1-0.3,0.1-0.6l0-3.8c0-0.3,0-0.5-0.1-0.6c-0.1-0.1-0.3-0.2-0.5-0.2
				c-0.3,0-0.4,0.1-0.5,0.2c-0.1,0.1-0.1,0.3-0.1,0.6L-101.6,402.7z"/>
			<path class="st0" d="M-93.9,404.5l-1.3,0l0-3.1l-1.5-4.3l1.3,0l0.9,2.8h0l0.9-2.8l1.3,0l-1.6,4.3L-93.9,404.5z"/>
			<path class="st0" d="M-90.1,404.6l0-7.4l3.4,0l0,1.1l-2.1,0l0,1.9l1.6,0l0,1.1l-1.6,0l0,2.2l2.3,0l0,1.1L-90.1,404.6z"/>
			<path class="st0" d="M-81.4,399.7l0-0.6c0-0.3-0.1-0.5-0.2-0.7c-0.1-0.1-0.3-0.2-0.4-0.2c-0.3,0-0.4,0.1-0.5,0.2
				c-0.1,0.1-0.1,0.3-0.1,0.6l0,3.8c0,0.3,0,0.5,0.1,0.6c0.1,0.1,0.3,0.2,0.5,0.2c0.2,0,0.4-0.1,0.5-0.2c0.1-0.1,0.1-0.3,0.1-0.6
				l0-0.9l1.3,0l0,0.8c0,0.3,0,0.5-0.1,0.7c-0.1,0.2-0.2,0.4-0.4,0.6c-0.2,0.2-0.4,0.3-0.6,0.4c-0.2,0.1-0.5,0.1-0.8,0.1
				c-0.3,0-0.6-0.1-0.9-0.2c-0.2-0.1-0.4-0.2-0.6-0.4c-0.2-0.2-0.3-0.4-0.4-0.6c-0.1-0.2-0.1-0.5-0.1-0.7l0-3.8c0-0.3,0-0.5,0.1-0.7
				c0.1-0.2,0.2-0.4,0.4-0.6c0.2-0.2,0.4-0.3,0.6-0.4c0.2-0.1,0.5-0.1,0.9-0.1c0.3,0,0.6,0.1,0.8,0.2c0.2,0.1,0.4,0.3,0.6,0.4
				c0.2,0.2,0.3,0.4,0.3,0.6c0.1,0.2,0.1,0.5,0.1,0.8l0,0.5L-81.4,399.7z"/>
			<path class="st0" d="M-76.6,398.3l-1.2,0l0-1.1l3.7,0l0,1.1l-1.2,0l0,6.3l-1.3,0L-76.6,398.3z"/>
			<path class="st0" d="M-71.7,399c0-0.3,0-0.5,0.1-0.7c0.1-0.2,0.2-0.4,0.4-0.6c0.2-0.2,0.4-0.3,0.6-0.4c0.2-0.1,0.5-0.1,0.9-0.1
				c0.3,0,0.6,0.1,0.9,0.2c0.2,0.1,0.4,0.2,0.6,0.4c0.2,0.2,0.3,0.4,0.4,0.6c0.1,0.2,0.1,0.5,0.1,0.7l0,3.8c0,0.3,0,0.5-0.1,0.7
				c-0.1,0.2-0.2,0.4-0.4,0.6c-0.2,0.2-0.4,0.3-0.6,0.4c-0.2,0.1-0.5,0.1-0.9,0.1c-0.3,0-0.6-0.1-0.9-0.2c-0.2-0.1-0.4-0.2-0.6-0.4
				c-0.2-0.2-0.3-0.4-0.4-0.6c-0.1-0.2-0.1-0.5-0.1-0.7L-71.7,399z M-70.5,402.8c0,0.3,0,0.5,0.1,0.6c0.1,0.1,0.3,0.2,0.5,0.2
				c0.3,0,0.4-0.1,0.5-0.2c0.1-0.1,0.1-0.3,0.1-0.6l0-3.8c0-0.3,0-0.5-0.1-0.6c-0.1-0.1-0.3-0.2-0.5-0.2c-0.3,0-0.4,0.1-0.5,0.2
				c-0.1,0.1-0.1,0.3-0.1,0.6L-70.5,402.8z"/>
			<path class="st0" d="M-61.2,397.3l1.9,0c0.7,0,1.2,0.2,1.5,0.6c0.3,0.4,0.5,0.9,0.5,1.7l0,2.9c0,0.8-0.2,1.3-0.5,1.7
				c-0.3,0.4-0.8,0.5-1.5,0.5l-1.9,0L-61.2,397.3z M-60,403.7l0.4,0c0.3,0,0.6-0.1,0.7-0.2c0.1-0.2,0.2-0.4,0.2-0.8l0-3.2
				c0-0.4-0.1-0.7-0.2-0.8c-0.1-0.2-0.4-0.2-0.7-0.2l-0.4,0L-60,403.7z"/>
			<path class="st0" d="M-54.6,404.7l0-7.4l3.4,0l0,1.1l-2.1,0l0,1.9l1.6,0l0,1.1l-1.6,0l0,2.2l2.3,0l0,1.1L-54.6,404.7z"/>
		</g>
		<g>
			<g>
				<g>
					<path class="st0" d="M-133.9,417.9c0-0.2,0.2-0.4,0.4-0.4l1.9,0c0.2,0,0.4,0.2,0.4,0.4l-0.1,11.7l5.3,0c0.2,0,0.4,0.2,0.4,0.4
						l0,1.7c0,0.2-0.2,0.4-0.4,0.4l-7.7,0c-0.2,0-0.4-0.2-0.4-0.4L-133.9,417.9z"/>
					<path class="st0" d="M-122.5,431.7l6.6-14c0.1-0.1,0.2-0.2,0.4-0.2h0.2c0.2,0,0.3,0.1,0.4,0.2l6.4,14.1c0.1,0.3,0,0.5-0.4,0.5
						l-1.8,0c-0.3,0-0.5-0.1-0.6-0.4l-1-2.3l-6.3,0l-1,2.3c-0.1,0.2-0.3,0.4-0.6,0.4l-1.8,0C-122.5,432.2-122.6,432-122.5,431.7z
						 M-113.5,427.3l-2.1-4.6l-0.1,0l-2.1,4.6L-113.5,427.3z"/>
				</g>
			</g>
			<g>
				<path class="st0" d="M-101.6,418.1c0-0.2,0.2-0.4,0.4-0.4l1.9,0c0.2,0,0.4,0.2,0.4,0.4l-0.1,11.7l5.3,0c0.2,0,0.4,0.2,0.4,0.4
					l0,1.7c0,0.2-0.2,0.4-0.4,0.4l-7.7,0c-0.2,0-0.4-0.2-0.4-0.4L-101.6,418.1z"/>
				<path class="st0" d="M-84.7,417.6c4.2,0,7.5,3.4,7.5,7.6c0,4.2-3.4,7.5-7.6,7.5c-4.2,0-7.5-3.4-7.5-7.5
					C-92.3,420.9-88.9,417.6-84.7,417.6z M-84.8,429.9c2.6,0,4.8-2.1,4.8-4.8c0-2.6-2.1-4.8-4.8-4.9c-2.6,0-4.8,2.2-4.8,4.8
					C-89.6,427.7-87.4,429.9-84.8,429.9z"/>
				<path class="st0" d="M-74.5,418c0-0.2,0.2-0.4,0.4-0.4l0.5,0l8.6,9.3h0l0-8.6c0-0.2,0.2-0.4,0.4-0.4l1.9,0
					c0.2,0,0.4,0.2,0.4,0.4l-0.1,14.1c0,0.2-0.2,0.4-0.4,0.4h-0.5l-8.7-9.6l0,0l0,9c0,0.2-0.2,0.4-0.4,0.4l-1.9,0
					c-0.2,0-0.4-0.2-0.4-0.4L-74.5,418z"/>
				<path class="st0" d="M-60.6,430.7l1.1-1.1c0.2-0.2,0.4-0.2,0.6,0c0.3,0.3,0.7,0.7,1.4,0.7c0.8,0,1.7-0.7,1.7-2.1l0-9.9
					c0-0.2,0.2-0.4,0.4-0.4l2,0c0.2,0,0.4,0.2,0.4,0.4l0,9.9c0,2.9-2,4.6-4.4,4.6c-1.8,0-2.8-1.1-3.2-1.5
					C-60.7,431.1-60.7,430.9-60.6,430.7z"/>
				<path class="st0" d="M-51.6,432l6.6-14c0.1-0.1,0.2-0.2,0.4-0.2l0.2,0c0.2,0,0.3,0.1,0.4,0.2l6.4,14.1c0.1,0.3,0,0.5-0.4,0.5
					l-1.8,0c-0.3,0-0.5-0.1-0.6-0.4l-1-2.3l-6.3,0l-1,2.3c-0.1,0.2-0.3,0.4-0.6,0.4l-1.8,0C-51.5,432.6-51.7,432.3-51.6,432z
					 M-42.5,427.6l-2.1-4.6l-0.1,0l-2.1,4.6L-42.5,427.6z"/>
			</g>
			<g>
				<g>
					<path class="st0" d="M-21.8,418.3c0-0.2,0.1-0.3,0.4-0.3l0.3,0c0.2,0,0.3,0.1,0.4,0.2l4.5,9.8c0,0,0,0,0.1,0l4.6-9.8
						c0.1-0.1,0.2-0.2,0.3-0.2l0.3,0c0.2,0,0.4,0.1,0.4,0.3l2.4,14c0.1,0.3-0.1,0.5-0.4,0.5l-1.9,0c-0.2,0-0.3-0.2-0.4-0.3l-1.2-7.9
						c0,0-0.1,0-0.1,0l-3.7,8.2c0,0.1-0.2,0.2-0.4,0.2l-0.4,0c-0.2,0-0.3-0.1-0.3-0.2l-3.6-8.2c0,0,0,0-0.1,0l-1.2,7.9
						c0,0.1-0.2,0.3-0.4,0.3l-1.9,0c-0.3,0-0.4-0.2-0.4-0.5L-21.8,418.3z"/>
					<path class="st0" d="M-0.1,425.4l-4.1-6.5c-0.2-0.3,0-0.6,0.4-0.6l2.4,0c0.2,0,0.3,0.1,0.3,0.2l2.6,4.4l0,0l2.7-4.4
						c0-0.1,0.2-0.2,0.3-0.2l2.4,0c0.4,0,0.5,0.3,0.3,0.6l-4.2,6.5l4.3,6.9c0.2,0.3,0,0.6-0.4,0.6l-2.2,0c-0.2,0-0.3-0.1-0.3-0.2
						l-2.9-4.8H1.5l-2.9,4.7c-0.1,0.1-0.2,0.2-0.4,0.2l-2.2,0c-0.4,0-0.5-0.3-0.4-0.6L-0.1,425.4z"/>
				</g>
			</g>
			
				<rect x="-32.2" y="417.8" transform="matrix(1 5.689359e-03 -5.689359e-03 1 2.4196 0.1853)" class="st0" width="1.6" height="15.1"/>
		</g>
	</g>
</g>
</svg>
